<svg xmlns="http://www.w3.org/2000/svg" width="32" height="32" viewBox="0 0 32 32">
	<path pid="0" fill="#fff" fill-rule="evenodd" d="M89.865 20.204c-.391-2.452-1.812-3.696-4.515-3.696h-7.788c-2.7 0-4.122 1.244-4.514 3.696a7.497 7.497 0 00-.071.888v14.61h4.871v-12.93c0-.997.35-1.395 1.3-1.395h4.624c.852 0 1.294.398 1.294 1.395v12.93h4.871v-14.61c0-.284-.037-.602-.072-.888zm-23.89 15.498h4.869V16.508h-4.87v19.194zM57.042 9.569h-4.871v26.147h4.87V21.392h4.667v-4.87h-4.667V9.57zM45.206 35.702h4.87V9.555h-4.87v26.147zm-33.05-12.939c0-1.029-.543-1.385-1.28-1.385h-4.62c-.928 0-1.388.418-1.388 1.35v8.097h5.99c.852 0 1.299-.536 1.299-1.387v-6.675zm4.8-2.275c.036.25.072.534.072.782v9.598c0 1.032-.214 1.848-.64 2.56-.926 1.635-2.027 2.274-3.804 2.274L.01 35.708 0 9.555h4.868v6.953h7.787c.32 0 .64.036.924.106 1.848.392 3.127 1.813 3.377 3.874zm14.293 8.95c0 .998-.35 1.395-1.3 1.395h-4.623c-.852 0-1.294-.397-1.294-1.395v-12.93H19.16v14.61c0 .284.038.602.073.888.39 2.452 1.812 3.696 4.514 3.696h7.789c2.7 0 4.121-1.244 4.514-3.696a7.5 7.5 0 00.07-.888v-14.61h-4.87v12.93zm7.004 6.297h4.87V16.54h-4.87v19.195z" clip-rule="evenodd"></path>
	<mask id="svgicon_market-logo_white_3_a" width="59" height="52" x="79" y="0" maskUnits="userSpaceOnUse">
	  <path pid="1" fill="#fff" fill-rule="evenodd" d="M79.815.364v9.19h3.266V3.63h51.288v45.034H83.081V42.65h-3.266v9.279h57.819V.364h-57.82zM112 16.533l-3.646 19.245h3.235l.603-3.81h3.043l.631 3.81h3.345l-3.647-19.245H112zm1.727 6.086l1.015 6.333h-2.056l1.041-6.333zm-14.531-6.031v19.19h6.881v-3.18h-3.537v-16.01h-3.344z" clip-rule="evenodd"></path>
	</mask>
	<g mask="url(#svgicon_market-logo_white_3_a)">
	  <path pid="2" fill="url(#b)" fill-rule="evenodd" d="M79.815.364v9.19h3.266V3.63h51.288v45.034H83.081V42.65h-3.266v9.279h57.819V.364h-57.82zM112 16.533l-3.646 19.245h3.235l.603-3.81h3.043l.631 3.81h3.345l-3.647-19.245H112zm1.727 6.086l1.015 6.333h-2.056l1.041-6.333zm-14.531-6.031v19.19h6.881v-3.18h-3.537v-16.01h-3.344z" clip-rule="evenodd"></path>
	</g>
	<defs>
	  <linearGradient id="b" x1="79.815" x2="137.634" y1="51.929" y2="51.929" gradientUnits="userSpaceOnUse">
		<stop stop-color="#fff"></stop><stop offset="1" stop-color="#fff"></stop>
	  </linearGradient>
	</defs>
  </svg>