<?xml version="1.0" encoding="utf-8"?>
<!-- Generator: Adobe Illustrator 21.1.0, SVG Export Plug-In . SVG Version: 6.00 Build 0)  -->
<svg version="1.1" id="Layer_1" xmlns="http://www.w3.org/2000/svg" xmlns:xlink="http://www.w3.org/1999/xlink" x="0px" y="0px"
	 viewBox="0 0 547.8 97.2" style="enable-background:new 0 0 547.8 97.2;" xml:space="preserve">
<style type="text/css">
	.st0{fill:#000;}
	.st1{fill:#323232;}
</style>
<g>
	<path class="st0" d="M151.2,40.7c0,0.4,0,0.8-0.1,1.2c0,0.4-0.1,0.9-0.1,1.3l-0.2,1.1h-10l0.3-1.4c0-0.1,0.1-0.3,0.1-0.4
		s0-0.3,0-0.6c0-1.3-0.5-2.4-1.5-3.2s-2.5-1.2-4.3-1.2c-1.7,0-3.1,0.5-4.2,1.4s-1.6,2.1-1.6,3.6c0,1.1,0.3,1.9,0.8,2.6
		c0.6,0.7,1.4,1.3,2.6,1.8l5.5,2.3c3.9,1.7,6.6,3.4,8.1,5.3c1.5,1.8,2.2,4.1,2.2,6.9c0,5-1.6,9-4.8,12s-7.6,4.5-13.1,4.5
		c-4.7,0-8.5-1.1-11.6-3.3c-3-2.2-4.6-5-4.6-8.5c0-0.4,0-0.8,0.1-1.2c0-0.4,0.1-0.8,0.1-1.2l0.4-1.7h10l-0.4,2.1
		c-0.1,0.4-0.1,0.7-0.1,0.8v0.3c0,1.4,0.6,2.4,1.7,3.2c1.1,0.7,2.8,1.1,4.9,1.1s3.9-0.6,5.1-1.7s1.9-2.6,1.9-4.5
		c0-1.1-0.3-2-0.8-2.7s-1.4-1.3-2.6-1.8l-6.8-2.8c-2.9-1.2-5.1-2.7-6.6-4.7s-2.2-4.3-2.2-7c0-4.5,1.5-8.2,4.5-11s7.1-4.2,12.2-4.2
		c4.4,0,8,1.1,10.9,3.2S151.2,37.2,151.2,40.7L151.2,40.7z"/>
	<path class="st0" d="M160,77l6.7-38.2h-11l1.7-9.1h32l-1.6,9.2h-10.9L170.2,77H160z"/>
	<path class="st0" d="M207.3,69.3h-14L190,77h-10l22-47.3h10.9l5.3,47.3h-10.1L207.3,69.3z M197,60.8h9.6l-1.5-18.6L197,60.8z"/>
	<path class="st0" d="M234.2,77H224l8.4-47.3H249c4.2,0,7.7,1.2,10.4,3.6c2.8,2.4,4.2,5.5,4.2,9.3c0,3.6-0.8,6.7-2.5,9.3
		s-4,4.5-7.2,5.9l4.1,19.3h-10.9l-3.4-16.9h-6.6L234.2,77z M244.9,51.2c2.5,0,4.5-0.6,6-1.9s2.3-3,2.3-5.3c0-1.7-0.6-3.1-1.8-4
		s-2.8-1.4-5-1.4h-5.3l-2.3,12.6L244.9,51.2z"/>
	<path class="st0" d="M272.6,77l6.7-38.2h-10.9l1.7-9.1h32l-1.7,9.1h-10.9L282.8,77H272.6z"/>
	<path class="st0" d="M318.1,68.6c1.7,0,3.2-0.6,4.4-1.9c1.2-1.2,2-3,2.4-5.2l5.6-31.8h10.3l-5.7,32c-0.9,5.1-2.9,9-6,11.8
		s-7.1,4.2-11.9,4.2c-4.6,0-8.3-1.2-11.2-3.6s-4.3-5.6-4.3-9.5c0-0.5,0-1,0.1-1.5c0-0.5,0.1-0.9,0.2-1.4l5.7-32h10.1l-5.6,31.8
		c0,0.5-0.1,0.8-0.1,1.1v0.6c0,1.7,0.5,3,1.6,3.9C314.7,68.1,316.2,68.6,318.1,68.6z"/>
	<path class="st0" d="M354.9,61.2L352.1,77h-10.2l8.4-47.3h16.5c4.4,0,7.9,1.2,10.7,3.7c2.7,2.5,4.1,5.7,4.1,9.7
		c0,5.4-1.7,9.8-5.2,13.1s-8,5-13.7,5L354.9,61.2z M362.6,52.3c2.5,0,4.5-0.7,6-2.2c1.5-1.4,2.3-3.4,2.3-5.8c0-1.8-0.6-3.2-1.7-4.2
		s-2.7-1.5-4.7-1.5h-5.7l-2.4,13.6L362.6,52.3z"/>
	<path class="st0" d="M382,71.3c0,1.8-0.6,3.3-1.9,4.5c-1.2,1.2-2.8,1.9-4.6,1.9c-1.4,0-2.5-0.4-3.5-1.3c-0.9-0.9-1.4-2-1.4-3.3
		c0-1.8,0.6-3.4,1.8-4.6s2.7-1.9,4.6-1.9c1.4,0,2.6,0.4,3.5,1.3C381.6,68.8,382,69.9,382,71.3z"/>
	<path class="st0" d="M389.8,65.5c0-0.4,0-0.8,0.1-1.2c0-0.4,0.1-0.8,0.1-1.2l0.3-1.9h10.2l-0.3,1.7c0,0.3-0.1,0.6-0.1,0.8v0.5
		c0,1.4,0.4,2.5,1.3,3.2c0.9,0.8,2.1,1.2,3.7,1.2c1.4,0,2.5-0.5,3.4-1.4s1.5-2.3,1.8-4.2l5.9-33.3h10.2l-5.9,33.5
		c-0.8,4.7-2.6,8.2-5.4,10.8c-2.8,2.5-6.3,3.8-10.7,3.8c-4.3,0-7.8-1.1-10.5-3.3C391.1,72.2,389.8,69.2,389.8,65.5z"/>
	<path class="st0" d="M450.5,29c4.7,0,8.4,1.2,11.4,3.6c2.9,2.4,4.4,5.6,4.4,9.5c0,0.4,0,0.9-0.1,1.4s-0.1,1-0.1,1.4l-3,16.8
		c-0.9,5.1-3,9.1-6.1,11.8c-3.2,2.8-7.2,4.1-12.2,4.1c-4.8,0-8.6-1.2-11.6-3.6s-4.4-5.6-4.4-9.5c0-0.5,0-1,0.1-1.4
		c0-0.5,0.1-0.9,0.2-1.4l3-16.8c1-5.4,3-9.4,6-12S445.2,29,450.5,29L450.5,29z M456.1,43.6c0-1.7-0.5-3.1-1.6-4
		c-1.1-1-2.6-1.4-4.6-1.4s-3.7,0.6-5.1,1.9c-1.4,1.2-2.2,3-2.6,5.2l-2.9,16.3c0,0.2-0.1,0.4-0.1,0.6s0,0.5,0,1c0,1.7,0.6,3.1,1.7,4
		c1.1,1,2.6,1.4,4.6,1.4s3.6-0.6,5-1.9c1.4-1.2,2.2-3,2.6-5.2l2.9-16.3c0-0.6,0.1-0.9,0.1-1.1C456,43.9,456.1,43.8,456.1,43.6z"/>
	<path class="st0" d="M505.4,62.1c0,4.5-1.5,8.1-4.6,10.8c-3,2.7-7.1,4.1-12.1,4.1h-19.8l8.4-47.3h17.2c4.1,0,7.4,1,9.9,2.9
		s3.7,4.5,3.7,7.7c0,3.1-0.7,5.7-2.2,7.8s-3.7,3.6-6.8,4.7v0.1c2.1,0.9,3.6,2.1,4.7,3.7C504.9,58.1,505.4,60,505.4,62.1L505.4,62.1z
		 M487.6,68.8c2.3,0,4.1-0.6,5.4-1.8s2-2.8,2-4.9c0-1.5-0.5-2.7-1.4-3.6s-2.2-1.3-3.9-1.3h-7.2l-2.1,11.7L487.6,68.8z M490.4,48.8
		c2.2,0,3.9-0.6,5.1-1.7c1.2-1.2,1.9-2.7,1.9-4.7c0-1.5-0.4-2.6-1.3-3.3S494,38,492.4,38H486l-1.9,10.9L490.4,48.8z"/>
	<path class="st0" d="M546.5,40.7c0,0.4,0,0.8-0.1,1.2c0,0.4-0.1,0.9-0.1,1.3l-0.2,1.1h-10l0.3-1.4c0-0.1,0.1-0.3,0.1-0.4
		s0-0.3,0-0.6c0-1.3-0.5-2.4-1.5-3.2s-2.5-1.2-4.3-1.2c-1.7,0-3.1,0.5-4.2,1.4s-1.6,2.1-1.6,3.6c0,1.1,0.3,1.9,0.8,2.6
		c0.6,0.7,1.4,1.3,2.6,1.8l5.5,2.3c3.9,1.7,6.6,3.4,8.1,5.3c1.5,1.8,2.2,4.1,2.2,6.9c0,5-1.6,9-4.8,12s-7.6,4.5-13.1,4.5
		c-4.7,0-8.5-1.1-11.6-3.3c-3-2.2-4.6-5-4.6-8.5c0-0.4,0-0.8,0.1-1.2c0-0.4,0.1-0.8,0.1-1.2l0.3-1.7h10l-0.4,2.1
		c-0.1,0.4-0.1,0.7-0.1,0.8v0.3c0,1.4,0.6,2.4,1.7,3.2c1.1,0.7,2.8,1.1,4.9,1.1s3.9-0.6,5.1-1.7s1.9-2.6,1.9-4.5
		c0-1.1-0.3-2-0.8-2.7s-1.4-1.3-2.6-1.8l-6.8-2.8c-2.9-1.2-5.1-2.7-6.6-4.7s-2.2-4.3-2.2-7c0-4.5,1.5-8.2,4.5-11s7.1-4.2,12.2-4.2
		c4.4,0,8,1.1,10.9,3.2S546.5,37.2,546.5,40.7L546.5,40.7z"/>
	<path class="st0" d="M0,76.1l36.6,21.1v-20L0,56.1V76.1z"/>
	<path class="st0" d="M54.9,65.6L18.3,44.4L1,54.5l36.5,21.1L54.9,65.6z"/>
	<path class="st0" d="M55.8,63.9V50.6v-6.7l-10-5.8L19.2,22.8v20L49,60L55.8,63.9z"/>
	<path class="st0" d="M93.4,21.1L56.8,0L20.2,21.1l36.6,21.1L93.4,21.1z"/>
	<path class="st0" d="M57.7,65.6v0.2c0,0.1-0.1,0.2-0.1,0.3c-0.1,0.1-0.2,0.2-0.3,0.3L38.5,77.2v20l36.6-21.1V54.5
		c0-0.3,0.2-0.7,0.5-0.8l18.8-10.8v-20l-36.7,21L57.7,65.6z"/>
</g>
<path class="st1" d="M77,56.1V75l16.4-9.4L77,56.1z"/>
</svg>
